<svg width="120" height="120" xmlns="http://www.w3.org/2000/svg" viewBox="0 0 120 120"><title>GitHub</title><path d="M60 0C26.87 0 0 26.87 0 60c0 33.13 26.87 60 60 60 30.2 0 55.2-22.33 59.38-51.4.4-1.97.6-4 .55-6.12.04-.82.07-1.65.07-2.48 0-33.13-26.87-60-60-60zm42.7 64.44c.13.04.22.2.18.34-.05.12-.15.2-.26.2h-.1c-7.27-2.23-16.27-2.54-19.27-2.64-2.32 5.1-6.8 7.35-13.87 8.4-.86.13-1.77.25-2.7.35 2.8 1.7 3.6 3.9 3.6 9.9s-.1 6.8-.07 8.1c.1 2.23 3.4 3.32 3.3 4.04-.1.73-2.73.62-4 .2-3.5-1.2-3.12-4.14-3.12-4.14l-.1-8S66.4 77 64.8 77v13.1c0 2.85 2 3.7 2 4.76 0 1.8-3.65-.17-4.77-1.3-1.7-1.7-1.5-5.36-1.48-8.23.04-2.77-.02-8.85-.02-8.85l-1.15.02s.47 13.28-.6 15.7c-1.42 3.1-5.66 4.17-5.66 2.75 0-.95 1.03-.64 1.62-2.78.5-1.8.32-15.34.32-15.34s-1.35.8-1.35 3.34v9.75c0 2.5-3.5 3.9-5.2 3.9-.8 0-1.9-.05-1.9-.5 0-1.15 3.2-1.82 3.2-4.2v-7.4s-1.7.28-4 .28c-5.83 0-7.7-3.74-8.56-5.83-1.14-2.7-2.63-4-4.2-5.02-.97-.62-1.2-1.36-.08-1.57 5.17-.98 6.5 5.85 9.95 6.95 2.4.77 5.6.44 7.2-.6.2-2.08 1.7-3.9 2.9-4.83l-.24-.03c-8.6-.87-13.76-3.93-16.43-8.77-9.18.2-14.4 1.5-18.22 2.42l-.8.2h-.04c-.13 0-.24-.07-.26-.2-.1-.15 0-.3.2-.34l.8-.2c3.8-.95 9-2.25 18.04-2.5-.27-.5-.5-1-.7-1.55-3.5-.02-14.4.48-18.13 1.4 0 .02-.02.02-.03.02-.16 0-.28-.1-.3-.23 0-.15.05-.3.2-.34 3.7-.9 14.3-1.4 18.06-1.4-.84-2.5-1.2-5.32-1.2-8.5 0-5.66 1.74-7.78 4.1-10.8-1.8-6.45.66-10.85.66-10.85s3.8-.8 11 4.36c3.9-1.7 14.3-1.8 19.2-.4 3-2 8.5-4.8 10.72-4.04.6 1 1.9 3.8.8 10 .75 1.4 4.68 4.3 4.7 12.5-.06 3-.38 5.57-.96 7.73 9.38-.07 14.9.7 18.7 1.4.13.03.24.17.22.33-.04.1-.15.22-.28.22h-.06c-3.8-.7-9.3-1.5-18.73-1.4-.15.5-.33 1.03-.54 1.54 3.2.1 12.03.43 19.2 2.63z"/></svg>