<svg width="120" height="120" xmlns="http://www.w3.org/2000/svg" viewBox="0 0 120 120"><title>Google+</title><path d="M55 43.7C53.4 37.9 48.7 34.1 44.6 35.2 40.4 36.4 38.4 42 39.9 47.8 41.5 53.6 46.2 57.4 50.3 56.3 54.5 55.2 56.6 49.5 55 43.7L55 43.7ZM60.2 0.4C27.3 0.4 0.7 27.1 0.7 60 0.7 92.9 27.3 119.6 60.2 119.6 93.1 119.6 119.8 92.9 119.8 60 119.8 27.1 93.1 0.4 60.2 0.4L60.2 0.4ZM63.3 45.9C63.3 55.1 54.6 56.3 54.6 60.2 54.6 64.1 66.1 67.3 66.1 77.1 66.1 93.4 45.9 92.4 45.9 92.4 45.9 92.4 28.5 93.1 28.5 80 28.5 66.8 48.3 67.4 49.3 67.4 49.1 64.3 47.1 64.8 47.1 63.4L47.1 59.7C47.1 59.7 32.1 61.4 32.1 46.9 32.1 32.4 49.2 32 49.2 32L66.1 32C66.1 34.5 58.4 33.6 58.4 35 62.8 37 63.3 40.3 63.3 45.9L63.3 45.9ZM97.8 47.2L86.1 47.2 86.1 59 82.6 59 82.6 47.2 70.8 47.2 70.8 43.7 82.6 43.7 82.6 32 86.1 32 86.1 43.7 97.8 43.7 97.8 47.2 97.8 47.2ZM47.4 69.9C40.4 70.4 35.1 74.9 35.4 80 35.7 85.1 41.7 88.8 48.7 88.4 55.6 87.9 61 83.4 60.7 78.3 60.3 73.2 54.4 69.5 47.4 69.9L47.4 69.9Z"/></svg>