<svg width="120" height="120" xmlns="http://www.w3.org/2000/svg" viewBox="0 0 120 120"><title>LinkedIn</title><path d="M42 54h8.2v25.4h-8zm4.2-12c-2.8 0-4.6 1.8-4.6 4.3 0 2.4 1.7 4.4 4.5 4.4 3 0 5-2 5-4.4 0-2.5-1.5-4.4-4.3-4.4zM70 53.5c-4.2 0-6 2.5-7.2 4.2V54h-8v25.4h8v-14c0-1 0-1.6.3-2.2 1-1.5 2-3 4.7-3 3 0 4 2.3 4 5.7v13H80V65c0-8-4-11.5-9.5-11.5zM60 0C27 0 .4 26.8.4 59.8S27 119.6 60 119.6s60-26.7 60-59.8C120 26.8 93 0 60 0zm28.2 84c0 2.3-1.8 4-4 4H36c-2.4 0-4.2-1.7-4.2-4V35.7c0-2.3 1.8-4 4-4h48c2.4 0 4.2 1.7 4.2 4V84z"/></svg>