<?xml version="1.0"?><svg xmlns="http://www.w3.org/2000/svg"><symbol viewBox="0 0 32 32" id="basket"><title>basket</title><path d="M25.4 12l-5.6-7.2.2-.8c0-1-1-2-2-2s-2 1-2 2 1 2 2 2h.3l4.6 6H9l4.7-6h.3c1 0 2-1 2-2s-1-2-2-2-2 1-2 2c0 .3 0 .5.2.8L6.6 12H0v4h2l2 16h24l2-16h2v-4h-6.6zM10 28H6v-4h4v4zm0-8H6v-4h4v4zm8 8h-4v-4h4v4zm0-8h-4v-4h4v4zm8 8h-4v-4h4v4zm0-8h-4v-4h4v4z"/></symbol><symbol viewBox="0 0 32 32" id="cancel"><title>cancel</title><path d="M16 0C7.2 0 0 7.2 0 16s7.2 16 16 16 16-7.2 16-16S24.8 0 16 0zm10 22l-4 4-6-6-6 6-4-4 6-6-6-6 4-4 6 6 6-6 4 4-6 6 6 6z"/></symbol><symbol viewBox="0 0 32 32" id="closed"><title>closed</title><path d="M16 0C7.2 0 0 7.2 0 16s7.2 16 16 16 16-7.2 16-16S24.8 0 16 0zm10 22l-4 4-6-6-6 6-4-4 6-6-6-6 4-4 6 6 6-6 4 4-6 6 6 6z"/></symbol><symbol viewBox="0 0 32 32" id="code"><title>code</title><path d="M12 6.8c-.5-.5-1.2-.5-1.8 0L0 16l10.2 9.2c.6.5 1.3.5 2 0s.5-1.5 0-2L4 16l8-7.2c.5-.5.5-1.4 0-2zm9.7 0c-.5-.5-1.3-.5-2 0-.5.6-.5 1.5 0 2l8 7.2-8 7.2c-.5.5-.5 1.4 0 2s1.5.5 2 0L32 16 21.7 6.8z"/></symbol><symbol viewBox="0 0 32 32" id="css"><title>css</title><path d="M.2 19l8-8 13 13-8.2 8L.2 19zM9 9.5l2-2L25 21l-2.2 2L9 9.5zm3.4-3l1-1c.5-.5 1-.8 1.6-.8.5 0 1 .2 1.6.7L18 6.8c.4.4 1 .6 1.5.6.6 0 1-.2 1.4-.6L26.4 1c.4-.4 1-.6 1.5-.6.6 0 1.2.2 1.7.7L31 2.7c.5.5.8 1 .8 1.6 0 .7-.2 1.2-.7 1.6l-5.5 5.7c-.4.4-.6 1-.6 1.4 0 .4 0 1 .5 1.4L27 16c.3.3.5.8.5 1.4 0 .6-.2 1-.6 1.5l-1.2 1L12.4 6.5zm15.2-2c.8 1 2.2-.3 1.4-1.2-.8-1-2.2.4-1.4 1.2z"/></symbol><symbol viewBox="0 0 32 32" id="css3"><title>css3</title><path d="M4.8 1.5L3.8 7h21.8l-.7 3.4H3l-1 5.3h21.8L22.6 22l-8.8 2.8-7.7-3 .7-2.6H1.3L0 25.6l12.6 5 14.6-5 4.8-24z"/></symbol><symbol viewBox="0 0 32 32" id="design"><title>design</title><path d="M27.7 7.3c-5-3.3-10.5-4.4-17-2.5C5.3 6.3.7 12 .2 17.2c-.4 6 4.2 11 12.3 11 8.8 0 12-4.2 12.2-5.5s-3.4-3.7-1.2-6c2.8-3.2 5.4-.6 7-1s2.2-5-3-8.4zm-10.2 15c-1.3 0-2.4-1-2.4-2.5s1.3-2.4 2.6-2.4 2.4 1 2.4 2.4-1.2 2.4-2.5 2.4z"/></symbol><symbol viewBox="0 0 32 32" id="fork"><title>fork</title><path d="M12 20c0-1.2 0-1.2.8-2L22 8.8C23.8 7 24 6 24 4.2V0h-4v4c0 1.2 0 1.2-.8 2L10 15.2C8.2 17 8 18 8 19.8V24H5l5 8 5-8h-3v-4zm12 4v-4.2c0-2-.2-2.8-2-4.6l-1-1-3 2.7 1.2 1c.7.7.8.7.8 2v4h-3l5 8 5-8h-3z"/></symbol><symbol viewBox="0 0 32 32" id="github"><title>github</title><path d="M26.5 5c.3-1 .6-2.7-.3-5 0 0-1.6-.5-5.2 2-1.4-.4-3-.6-4.4-.6-1.7 0-3.4.2-5 .7C8-.2 6.4 0 6.4 0 5.4 2.7 6 4.7 6 5.2c-1.2 1.4-2 3-2 5.2 0 1.7.2 3 .7 4.4l.5 1c1.2 2.4 3.7 4 8 4.4-.5.4-1.2 1-1.4 2.3-1 .4-3.6 1.4-5.2-1.4 0 0-1-1.3-2.6-1.5 0 0-1.7 0-.2 1 0 0 1.2.6 2 2.6 0 0 1 3.4 6 2.3v3.5s-.2 1.3-1.4 1.7c0 0-.7.5 0 .7 0 0 3.2.5 3.2-2v-4s0-1.6.7-2v6s0 1.5-1 2c0 0-.4 1 .8.8 0 0 2.4-.4 2.5-3v-6.3h.6V29c0 2.6 2.3 3 2.3 3 1.2.2.7-.7.7-.7-1-.6-1-2-1-2V23c.7.5.6 2 .6 2v3.8c0 2.6 3 2.3 3 2.3.8 0 .2-.4.2-.4-1.3-.4-1.4-1.7-1.4-1.7v-5c0-2-.8-3-1.6-3.6 4.7-.5 7-2 8-4.4l.4-1c.3-1.4.4-2.8.4-4.5 0-2.3-.8-4-2.3-5.5zm-10 14.3c-5 0-9.3-.8-9.3-5.7 0-1.2.6-2.3 1.6-3.2 1.7-1.6 4.5-.8 7.7-.8s6-.8 7.7.7c1 1 1.6 2 1.6 3.3 0 5.5-4 5.7-9.3 5.7zm-5-8.2c-1 0-2 1.5-2 3s1 2.8 2 2.8 2-1.2 2-2.8c0-1.6-1-2.8-2-2.8zM22 11c-1.2 0-2 1.3-2 2.8s.8 2.8 2 2.8c1 0 1.8-1.2 1.8-2.8s-1-2.7-2-2.7z"/></symbol><symbol viewBox="0 0 32 32" id="html5"><title>html5</title><path d="M2 0l2.5 28.8L16 32l11.5-3.2L30 0H2zm22.5 9.4H11l.3 3.6h13l-1 11-7.3 2-7.3-2-.4-5.7h3.5l.3 3 4 1 4-1.2.4-4.3H8L7 6h18l-.3 3.4z"/></symbol><symbol viewBox="0 0 32 32" id="javascript"><title>javascript</title><path d="M26.5 13.3c0-2-6-3.4-13-3.4s-13 1-13 3c0 10.2 4 18.6 13 18.6 5.2 0 9-4 10.8-7.5 3.7.4 7.3-2.3 7.3-5.3 0-2.5-2.2-4.7-5-5.3V13zm-13 2.3c-3 0-11-.3-11.7-2.3C3 11.7 10.4 11 13.5 11c3 0 10.4.5 11.7 2.3-1.5 2.3-8.6 2.3-11.7 2.3zm11.3 7.7c1-2.2 1.4-4.6 1.6-7 2 .3 3 1.7 3 3 0 2-1.4 3.8-4.5 4h-.5zM16 8c1.7-2.8-3-5.6.2-8-2.7.2-3.2 2-2.5 3.2C14.4 4.5 16 5.4 16 8zm-1.4 1.7c.8-2.3-3.7-4-1.2-6.7C11 3.7 11 5.6 12 6.7c.8.8 2 1 2.6 3z"/></symbol><symbol viewBox="0 0 32 32" id="photoshop"><title>photoshop</title><path d="M27.4 1c-5-.3-9 .5-12.3 3.8-6 6-8 10.6-11 16.5L.5 29.8c-.6 1.2 1 1.6 1.5 1l4.7-8c7 2.5 11-1.4 12.8-2.7-4.5.7-7.6-2.6-7.6-2.6s11 .2 14-4.2c-5-.3-8.8-2.4-8.8-2.4s10.3-1.3 11-2c.7-1 1.4-2.7 1.3-3.3 0-1.4 6-3.6-1.8-4.2z"/></symbol><symbol viewBox="0 0 32 32" id="reload"><title>reload</title><path d="M24 18c0 4.4-3.6 8-8 8s-8-3.6-8-8 3.6-8 8-8h4v4l6-6-6-6v4h-4C9.4 6 4 11.4 4 18s5.4 12 12 12 12-5.4 12-12h-4z"/></symbol><symbol viewBox="0 0 32 32" id="ruby"><title>ruby</title><path d="M2 12l13.5 16.7L10 12H2zm9.6 0l4.7 16.7 4-16.6h-8.7zM17 28.8L30 12h-8l-5 16.7zM30 11l-4-6.6-3.8 6.6H30zm-5-7h-8l3.8 6.8L25 4zm-5.2 7L16 4.4 12 11h8zm-5-7H7l4 6.8L14.8 4zm-9 .4L2 11h7.8l-4-6.6z"/></symbol><symbol viewBox="0 0 32 32" id="tools"><title>tools</title><path d="M27.8 8c1 2.2.5 5-1.4 7-2 2-5.2 2.3-7.6 1L17 17.7l1.3 1.3.7-.7c.4-.3 1-.3 1.4 0l6 6.2c.5.4.5 1 0 1.4l-2.7 2.6c-.4.3-1 .3-1.4 0l-6-6.2c-.4-.4-.4-1 0-1.4l.6-.6-1.4-1.2-8.4 9.2c-.7.8-2 .8-2.8 0l-.7-.7c-.7-.7-.7-2 0-2.7l9.6-8L7 10.4H5L2.8 6.8l2-2 3.7 2.5v2l6.5 6.4 1.8-1.6c-2-2.3-1.7-6 .6-8 2-2 4.6-2.4 7-1.4l-4.2 4 3.5 3.5 4-4zM6 26c-.2-.4-1-.4-1.2 0-.4.3-.4 1 0 1.3.3.4 1 .4 1.3 0 .6-.4.6-1 0-1.4z"/></symbol></svg>