<svg width="121" height="120" viewBox="0 0 121 120" xmlns="http://www.w3.org/2000/svg"><title>LinkedIn</title><path d="M42 54.2h8.4v25.5h-8L42 54.2zm4.4-12c-3 0-4.7 1.7-4.7 4.3 0 2.4 1.7 4.4 4.6 4.4 3 0 5-2 5-4.8 0-2.6-1.5-4.5-4.3-4.5h-.6zm23.8 11.5c-4.2 0-6 2.5-7.2 4.2v-4h-8v25.3h8v-14c0-1 0-1.7.3-2.3 1-1.4 2-3 4.7-3 3 0 4 2.4 4 5.8v13h8.3V65c0-8-4-11.4-9.6-11.4h-.5zM60.2 0C27.2 0 .4 27 .4 60s26.7 60 59.8 60c33 0 60.2-26.8 60.2-60 0-33-27-60-60.2-60zm28.3 84.3c0 2.3-1.8 4-4 4H36c-2.3 0-4-1.7-4-4V35.8c0-2.3 1.7-4 4-4h48c2.5 0 4.3 1.7 4.3 4v48.5h.2z"/></svg>