<svg width="120" height="120" xmlns="http://www.w3.org/2000/svg" viewBox="0 0 120 120"><title>Twitter</title><path d="M60 0C27 0 0 27 0 60s27 60 60 60c30.2 0 55.2-22.3 59.4-51.4.4-2 .6-4 .5-6V60c0-33-27-60-60-60zm27.6 49v2c0 17-13 37-36.8 37-7.3 0-14.2-2.3-20-6 1 .2 2.2.2 3.2.2 6 0 11.7-2 16-5.5-5.6 0-10.4-4-12-9l2.4.2c1.2 0 2.4 0 3.4-.8-6-1.2-10.4-6.5-10.4-12.7v-.2c1.8 1 3.8 1.5 6 1.6-3.6-2.3-6-6.3-6-10.8 0-2.4.8-4.6 2-6.5 6.3 7.7 15.8 13 26.6 13.4l-.3-3c0-7 5.8-13 13-13 3.7 0 7 1.8 9.4 4.3 3-.6 6-1.6 8.7-3-1 3-3 5.4-5.7 7 2.6-.3 5-1 7.4-2-1.7 2.6-3.8 5-6.4 6.7z"/></svg>