<svg xmlns="http://www.w3.org/2000/svg" width="32" height="32" viewBox="0 0 32 32"><path d="M26.5 5c.3-1 .6-2.7-.3-5 0 0-1.6-.5-5.2 2-1.4-.4-3-.6-4.4-.6-1.7 0-3.4.2-5 .7C8-.2 6.4 0 6.4 0 5.4 2.7 6 4.7 6 5.2c-1.2 1.4-2 3-2 5.2 0 1.7.2 3 .7 4.4l.5 1c1.2 2.4 3.7 4 8 4.4-.5.4-1.2 1-1.4 2.3-1 .4-3.6 1.4-5.2-1.4 0 0-1-1.3-2.6-1.5 0 0-1.7 0-.2 1 0 0 1.2.6 2 2.6 0 0 1 3.4 6 2.3v3.5s-.2 1.3-1.4 1.7c0 0-.7.5 0 .7 0 0 3.2.5 3.2-2v-4s0-1.6.7-2v6s0 1.5-1 2c0 0-.4 1 .8.8 0 0 2.4-.4 2.5-3v-6.3h.6V29c0 2.6 2.3 3 2.3 3 1.2.2.7-.7.7-.7-1-.6-1-2-1-2V23c.7.5.6 2 .6 2v3.8c0 2.6 3 2.3 3 2.3.8 0 .2-.4.2-.4-1.3-.4-1.4-1.7-1.4-1.7v-5c0-2-.8-3-1.6-3.6 4.7-.5 7-2 8-4.4l.4-1c.3-1.4.4-2.8.4-4.5 0-2.3-.8-4-2.3-5.5zm-10 14.3c-5 0-9.3-.8-9.3-5.7 0-1.2.6-2.3 1.6-3.2 1.7-1.6 4.5-.8 7.7-.8s6-.8 7.7.7c1 1 1.6 2 1.6 3.3 0 5.5-4 5.7-9.3 5.7zm-5-8.2c-1 0-2 1.5-2 3s1 2.8 2 2.8 2-1.2 2-2.8c0-1.6-1-2.8-2-2.8zM22 11c-1.2 0-2 1.3-2 2.8s.8 2.8 2 2.8c1 0 1.8-1.2 1.8-2.8s-1-2.7-2-2.7z"/></svg>