<svg width="32" height="32" viewBox="0 0 32 32" xmlns="http://www.w3.org/2000/svg"><title>Shape</title><path d="M26.5 13.3c0-2-6-3.4-13-3.4s-13 1-13 3c0 10.2 4 18.6 13 18.6 5.2 0 9-4 10.8-7.5 3.7.4 7.3-2.3 7.3-5.3 0-2.5-2.2-4.7-5-5.3V13zm-13 2.3c-3 0-11-.3-11.7-2.3C3 11.7 10.4 11 13.5 11c3 0 10.4.5 11.7 2.3-1.5 2.3-8.6 2.3-11.7 2.3zm11.3 7.7c1-2.2 1.4-4.6 1.6-7 2 .3 3 1.7 3 3 0 2-1.4 3.8-4.5 4h-.5zM16 8c1.7-2.8-3-5.6.2-8-2.7.2-3.2 2-2.5 3.2C14.4 4.5 16 5.4 16 8zm-1.4 1.7c.8-2.3-3.7-4-1.2-6.7C11 3.7 11 5.6 12 6.7c.8.8 2 1 2.6 3z"/></svg>