<?xml version="1.0"?><svg xmlns="http://www.w3.org/2000/svg"><symbol viewBox="0 0 120 120" id="contact"><title>Contact</title><path d="M60 0C27 0 0 27 0 60s27 60 60 60 60-27 60-60S93 0 60 0zm28 38L59 60.7 30.5 38H88zm-61.3 3L47 57 26.7 77.3V41zm2.7 40.2L50.7 60l8.3 6.6.2.2 9-7.2 21.6 21.6H29.4zM93 77.8l-21-21L93 40v37.8z"/></symbol><symbol viewBox="0 0 120 120" id="github"><title>GitHub</title><path d="M60 0C26.87 0 0 26.87 0 60c0 33.13 26.87 60 60 60 30.2 0 55.2-22.33 59.38-51.4.4-1.97.6-4 .55-6.12.04-.82.07-1.65.07-2.48 0-33.13-26.87-60-60-60zm42.7 64.44c.13.04.22.2.18.34-.05.12-.15.2-.26.2h-.1c-7.27-2.23-16.27-2.54-19.27-2.64-2.32 5.1-6.8 7.35-13.87 8.4-.86.13-1.77.25-2.7.35 2.8 1.7 3.6 3.9 3.6 9.9s-.1 6.8-.07 8.1c.1 2.23 3.4 3.32 3.3 4.04-.1.73-2.73.62-4 .2-3.5-1.2-3.12-4.14-3.12-4.14l-.1-8S66.4 77 64.8 77v13.1c0 2.85 2 3.7 2 4.76 0 1.8-3.65-.17-4.77-1.3-1.7-1.7-1.5-5.36-1.48-8.23.04-2.77-.02-8.85-.02-8.85l-1.15.02s.47 13.28-.6 15.7c-1.42 3.1-5.66 4.17-5.66 2.75 0-.95 1.03-.64 1.62-2.78.5-1.8.32-15.34.32-15.34s-1.35.8-1.35 3.34v9.75c0 2.5-3.5 3.9-5.2 3.9-.8 0-1.9-.05-1.9-.5 0-1.15 3.2-1.82 3.2-4.2v-7.4s-1.7.28-4 .28c-5.83 0-7.7-3.74-8.56-5.83-1.14-2.7-2.63-4-4.2-5.02-.97-.62-1.2-1.36-.08-1.57 5.17-.98 6.5 5.85 9.95 6.95 2.4.77 5.6.44 7.2-.6.2-2.08 1.7-3.9 2.9-4.83l-.24-.03c-8.6-.87-13.76-3.93-16.43-8.77-9.18.2-14.4 1.5-18.22 2.42l-.8.2h-.04c-.13 0-.24-.07-.26-.2-.1-.15 0-.3.2-.34l.8-.2c3.8-.95 9-2.25 18.04-2.5-.27-.5-.5-1-.7-1.55-3.5-.02-14.4.48-18.13 1.4 0 .02-.02.02-.03.02-.16 0-.28-.1-.3-.23 0-.15.05-.3.2-.34 3.7-.9 14.3-1.4 18.06-1.4-.84-2.5-1.2-5.32-1.2-8.5 0-5.66 1.74-7.78 4.1-10.8-1.8-6.45.66-10.85.66-10.85s3.8-.8 11 4.36c3.9-1.7 14.3-1.8 19.2-.4 3-2 8.5-4.8 10.72-4.04.6 1 1.9 3.8.8 10 .75 1.4 4.68 4.3 4.7 12.5-.06 3-.38 5.57-.96 7.73 9.38-.07 14.9.7 18.7 1.4.13.03.24.17.22.33-.04.1-.15.22-.28.22h-.06c-3.8-.7-9.3-1.5-18.73-1.4-.15.5-.33 1.03-.54 1.54 3.2.1 12.03.43 19.2 2.63z"/></symbol><symbol viewBox="0 0 120 120" id="google"><title>Google+</title><path d="M55 43.7C53.4 37.9 48.7 34.1 44.6 35.2 40.4 36.4 38.4 42 39.9 47.8 41.5 53.6 46.2 57.4 50.3 56.3 54.5 55.2 56.6 49.5 55 43.7L55 43.7ZM60.2 0.4C27.3 0.4 0.7 27.1 0.7 60 0.7 92.9 27.3 119.6 60.2 119.6 93.1 119.6 119.8 92.9 119.8 60 119.8 27.1 93.1 0.4 60.2 0.4L60.2 0.4ZM63.3 45.9C63.3 55.1 54.6 56.3 54.6 60.2 54.6 64.1 66.1 67.3 66.1 77.1 66.1 93.4 45.9 92.4 45.9 92.4 45.9 92.4 28.5 93.1 28.5 80 28.5 66.8 48.3 67.4 49.3 67.4 49.1 64.3 47.1 64.8 47.1 63.4L47.1 59.7C47.1 59.7 32.1 61.4 32.1 46.9 32.1 32.4 49.2 32 49.2 32L66.1 32C66.1 34.5 58.4 33.6 58.4 35 62.8 37 63.3 40.3 63.3 45.9L63.3 45.9ZM97.8 47.2L86.1 47.2 86.1 59 82.6 59 82.6 47.2 70.8 47.2 70.8 43.7 82.6 43.7 82.6 32 86.1 32 86.1 43.7 97.8 43.7 97.8 47.2 97.8 47.2ZM47.4 69.9C40.4 70.4 35.1 74.9 35.4 80 35.7 85.1 41.7 88.8 48.7 88.4 55.6 87.9 61 83.4 60.7 78.3 60.3 73.2 54.4 69.5 47.4 69.9L47.4 69.9Z"/></symbol><symbol viewBox="0 0 120 120" id="html5"><title>HTML5</title><path d="M44.6 65H69l-.8 9-8 2-7.7-2-.5-5.5h-7l1 11 14.3 3.8 14.5-4v-1L76.6 60v-2H51l-.6-7h27v-1.7L78 46l.2-2H42.7v2l2 19zM60.3.5C27.3.5.6 27.2.6 60.2s26.7 59.6 59.7 59.6c30 0 55-22.2 59-51 .5-2 .6-4 .6-6.2v-2.4c0-33-27-59.7-60-59.7zm23.2 89l-23.2 6.3L37 89.4l-5-57.6h56.6l-5 57.6z"/></symbol><symbol viewBox="0 0 120 120" id="linkedin"><title>LinkedIn</title><path d="M42 54h8.2v25.4h-8zm4.2-12c-2.8 0-4.6 1.8-4.6 4.3 0 2.4 1.7 4.4 4.5 4.4 3 0 5-2 5-4.4 0-2.5-1.5-4.4-4.3-4.4zM70 53.5c-4.2 0-6 2.5-7.2 4.2V54h-8v25.4h8v-14c0-1 0-1.6.3-2.2 1-1.5 2-3 4.7-3 3 0 4 2.3 4 5.7v13H80V65c0-8-4-11.5-9.5-11.5zM60 0C27 0 .4 26.8.4 59.8S27 119.6 60 119.6s60-26.7 60-59.8C120 26.8 93 0 60 0zm28.2 84c0 2.3-1.8 4-4 4H36c-2.4 0-4.2-1.7-4.2-4V35.7c0-2.3 1.8-4 4-4h48c2.4 0 4.2 1.7 4.2 4V84z"/></symbol><symbol viewBox="0 0 120 120" id="pinboard"><title>Pinboard</title><path d="M60 0C27 0 0 27 0 60s27 60 60 60c30.2 0 55.2-22.3 59.4-51.4.4-2 .6-4 .5-6V60c0-33-27-60-60-60zm3.6 67.8L50.2 81.2l2.4-12L35 47.5h-9.4L37 36.2l11-10.7v10.2l21 17 12-2-13 13L94.4 95 63.6 68z"/></symbol><symbol viewBox="0 0 120 120" id="twitter"><title>Twitter</title><path d="M60 0C27 0 0 27 0 60s27 60 60 60c30.2 0 55.2-22.3 59.4-51.4.4-2 .6-4 .5-6V60c0-33-27-60-60-60zm27.6 49v2c0 17-13 37-36.8 37-7.3 0-14.2-2.3-20-6 1 .2 2.2.2 3.2.2 6 0 11.7-2 16-5.5-5.6 0-10.4-4-12-9l2.4.2c1.2 0 2.4 0 3.4-.8-6-1.2-10.4-6.5-10.4-12.7v-.2c1.8 1 3.8 1.5 6 1.6-3.6-2.3-6-6.3-6-10.8 0-2.4.8-4.6 2-6.5 6.3 7.7 15.8 13 26.6 13.4l-.3-3c0-7 5.8-13 13-13 3.7 0 7 1.8 9.4 4.3 3-.6 6-1.6 8.7-3-1 3-3 5.4-5.7 7 2.6-.3 5-1 7.4-2-1.7 2.6-3.8 5-6.4 6.7z"/></symbol></svg>